<?xml version="1.0" encoding="utf-8"?>
<!-- Generator: Adobe Illustrator 28.0.0, SVG Export Plug-In . SVG Version: 6.00 Build 0)  -->
<svg version="1.1" id="Layer_1" xmlns="http://www.w3.org/2000/svg" xmlns:xlink="http://www.w3.org/1999/xlink" x="0px" y="0px"
	 viewBox="0 0 24 24" style="enable-background:new 0 0 24 24;" xml:space="preserve">
<style type="text/css">
	.st0{fill:#336799;}
	.st1{fill:#FFFFFF;}
</style>
<path class="st0" d="M21.1,24H2.9C1.3,24,0,22.7,0,21.1V2.9C0,1.3,1.3,0,2.9,0h18.2C22.7,0,24,1.3,24,2.9v18.2
	C24,22.7,22.7,24,21.1,24z"/>
<path class="st1" d="M5.1,18.9c-0.5,0-0.9-0.2-1.2-0.5c-0.3-0.3-0.5-0.7-0.5-1.2V6.8c0-0.5,0.2-0.9,0.5-1.2s0.7-0.5,1.2-0.5h10.4
	c0.5,0,0.9,0.2,1.2,0.5s0.5,0.7,0.5,1.2v3.9l3.5-3.5v9.6l-3.5-3.5v3.9c0,0.5-0.2,0.9-0.5,1.2c-0.3,0.3-0.7,0.5-1.2,0.5H5.1z
	 M5.1,17.2h10.4V6.8H5.1V17.2z M5.1,17.2V6.8V17.2z"/>
</svg>
